<svg width="256" height="256" viewBox="0 0 256 256" xmlns="http://www.w3.org/2000/svg">
  <!-- Background circle -->
  <circle cx="128" cy="128" r="120" fill="#6B46C1" opacity="0.9"/>
  
  <!-- Flow spiral/aura effect -->
  <path d="M 128 48 Q 80 80 96 128 Q 112 176 128 208 Q 144 176 160 128 Q 176 80 128 48 M 128 72 Q 88 96 100 128 Q 112 160 128 184 Q 144 160 156 128 Q 168 96 128 72 M 128 96 Q 104 112 112 128 Q 120 144 128 160 Q 136 144 144 128 Q 152 112 128 96" 
        fill="none" stroke="#A78BFA" stroke-width="6" stroke-linecap="round" opacity="0.8"/>
  
  <!-- Center diamond/gem -->
  <polygon points="128,104 140,128 128,152 116,128" fill="#FBBF24" opacity="0.95"/>
  
  <!-- Small particles -->
  <circle cx="64" cy="88" r="6" fill="#C4B5FD" opacity="0.7"/>
  <circle cx="192" cy="88" r="6" fill="#C4B5FD" opacity="0.7"/>
  <circle cx="72" cy="168" r="4" fill="#C4B5FD" opacity="0.6"/>
  <circle cx="184" cy="168" r="4" fill="#C4B5FD" opacity="0.6"/>
</svg>
